<svg width="1638" height="1631" viewBox="0 0 1638 1631" fill="none" xmlns="http://www.w3.org/2000/svg">
<path fill-rule="evenodd" clip-rule="evenodd" d="M342.674 1150.81C282.176 1210.7 184.58 1210.21 124.687 1149.71C64.7933 1089.22 65.2838 991.619 125.782 931.726C163.014 894.867 214.296 880.877 262.194 889.67C295.154 895.72 331.984 893.453 355.798 869.877L639.381 589.13C653.053 575.596 660.788 557.184 660.884 537.946L661.273 460.591C661.474 420.53 694.113 388.217 734.174 388.418L1177.02 390.644C1217.08 390.845 1249.4 423.484 1249.2 463.545L1246.97 906.394C1246.77 946.455 1214.13 978.768 1174.07 978.567L1101.4 978.202C1082.17 978.105 1063.68 985.654 1050.01 999.189L764.066 1282.27C740.252 1305.85 737.616 1342.65 743.334 1375.67C751.645 1423.65 737.14 1474.79 699.909 1511.65C639.411 1571.55 541.814 1571.06 481.921 1510.56C422.028 1450.06 422.518 1352.46 483.016 1292.57C520.248 1255.71 571.53 1241.72 619.428 1250.51C652.388 1256.56 689.219 1254.3 713.033 1230.72L844.325 1100.74C890.25 1055.27 858.279 976.98 793.656 976.655L731.22 976.341C720.612 976.288 709.719 978.821 702.18 986.284L327.704 1357.02C303.89 1380.59 301.254 1417.4 306.972 1450.42C315.283 1498.4 300.778 1549.54 263.547 1586.4C203.048 1646.29 105.452 1645.8 45.559 1585.3C-14.3341 1524.8 -13.8438 1427.21 46.6544 1367.32C83.886 1330.46 135.168 1316.47 183.066 1325.26C216.026 1331.31 252.856 1329.04 276.671 1305.47L647.061 938.78C656.216 929.716 658.983 916.322 659.048 903.44L659.338 845.694C659.663 781.07 581.693 748.314 535.768 793.78L406.832 921.426C383.018 945.002 380.381 981.808 386.1 1014.83C394.41 1062.81 379.906 1113.95 342.674 1150.81ZM189.574 996.163C214.485 971.501 254.672 971.703 279.333 996.614C303.995 1021.52 303.794 1061.71 278.882 1086.37C253.971 1111.04 213.785 1110.83 189.123 1085.92C164.461 1061.01 164.663 1020.82 189.574 996.163ZM110.446 1431.75C135.357 1407.09 175.544 1407.29 200.206 1432.2C224.868 1457.11 224.666 1497.3 199.755 1521.96C174.844 1546.62 134.657 1546.42 109.995 1521.51C85.3331 1496.6 85.5352 1456.41 110.446 1431.75ZM636.568 1357.46C611.906 1332.55 571.719 1332.34 546.808 1357.01C521.897 1381.67 521.695 1421.85 546.357 1446.77C571.019 1471.68 611.206 1471.88 636.117 1447.22C661.028 1422.55 661.23 1382.37 636.568 1357.46ZM1065.81 869.215C1105.87 869.416 1138.51 837.103 1138.71 797.042L1139.84 571.804C1140.05 531.743 1107.73 499.104 1067.67 498.902L842.433 497.77C802.372 497.569 769.733 529.882 769.531 569.943L768.4 795.182C768.198 835.243 800.511 867.882 840.572 868.083L1065.81 869.215Z" fill="#36F767"/>
<path d="M1408.29 1167.02C1423.32 1167.06 1435.52 1154.91 1435.56 1139.88L1437.65 229.322C1437.69 214.299 1425.54 202.093 1410.51 202.058L499.953 199.961C484.93 199.927 472.723 212.077 472.689 227.1L471.705 654.532C471.688 661.772 468.786 668.707 463.641 673.801L318.234 817.754C301.037 834.778 271.839 822.558 271.894 798.36L273.524 90.6333C273.639 40.5566 314.328 0.0548549 364.405 0.170167L1546.98 2.89313C1597.06 3.00841 1637.56 43.6971 1637.45 93.7738L1634.72 1276.35C1634.61 1326.43 1593.92 1366.93 1543.84 1366.81L836.605 1365.19C812.335 1365.13 800.282 1335.73 817.53 1318.65L963.731 1173.91C968.839 1168.86 975.742 1166.03 982.931 1166.04L1408.29 1167.02Z" fill="#36F767"/>
</svg>
